<svg width="1368" height="294" viewBox="0 0 1368 294" fill="none" xmlns="http://www.w3.org/2000/svg">
<path d="M0.800002 287V6.99998H138.8C170 6.99998 197.467 12.7333 221.2 24.2C244.933 35.4 263.467 51.4 276.8 72.2C290.133 93 296.8 117.8 296.8 146.6C296.8 175.667 290.133 200.733 276.8 221.8C263.467 242.6 244.933 258.733 221.2 270.2C197.467 281.4 170 287 138.8 287H0.800002ZM95.2 213.4H134.8C148.133 213.4 159.733 210.867 169.6 205.8C179.733 200.733 187.6 193.267 193.2 183.4C198.8 173.267 201.6 161 201.6 146.6C201.6 132.467 198.8 120.467 193.2 110.6C187.6 100.733 179.733 93.2667 169.6 88.2C159.733 83.1333 148.133 80.6 134.8 80.6H95.2V213.4ZM435.669 293.4C412.202 293.4 389.535 290.733 367.669 285.4C345.802 280.067 327.802 273.133 313.669 264.6L344.069 195.8C357.402 203.533 372.202 209.8 388.469 214.6C405.002 219.133 421.002 221.4 436.469 221.4C445.535 221.4 452.602 220.867 457.669 219.8C463.002 218.467 466.869 216.733 469.269 214.6C471.669 212.2 472.869 209.4 472.869 206.2C472.869 201.133 470.069 197.133 464.469 194.2C458.869 191.267 451.402 188.867 442.069 187C433.002 184.867 423.002 182.733 412.069 180.6C401.135 178.2 390.069 175.133 378.869 171.4C367.935 167.667 357.802 162.733 348.469 156.6C339.402 150.467 332.069 142.467 326.469 132.6C320.869 122.467 318.069 109.933 318.069 95C318.069 77.6667 322.869 61.9333 332.469 47.8C342.335 33.4 356.869 21.9333 376.069 13.4C395.535 4.86666 419.669 0.599992 448.469 0.599992C467.402 0.599992 486.069 2.59999 504.469 6.59999C522.869 10.6 539.402 16.7333 554.069 25L525.669 93.4C511.802 86.4666 498.335 81.2667 485.269 77.8C472.469 74.3333 459.935 72.6 447.669 72.6C438.602 72.6 431.402 73.4 426.069 75C420.735 76.6 416.869 78.7333 414.469 81.4C412.335 84.0667 411.269 87 411.269 90.2C411.269 95 414.069 98.8667 419.669 101.8C425.269 104.467 432.602 106.733 441.669 108.6C451.002 110.467 461.135 112.467 472.069 114.6C483.269 116.733 494.335 119.667 505.269 123.4C516.202 127.133 526.202 132.067 535.269 138.2C544.602 144.333 552.069 152.333 557.669 162.2C563.269 172.067 566.069 184.333 566.069 199C566.069 216.067 561.135 231.8 551.269 246.2C541.669 260.333 527.269 271.8 508.069 280.6C488.869 289.133 464.735 293.4 435.669 293.4ZM664.959 287L575.359 6.99998H672.559L744.959 243.4H696.159L772.959 6.99998H859.759L931.359 243.4H884.559L960.159 6.99998H1049.76L960.159 287H858.959L800.559 93.4H827.759L766.159 287H664.959ZM1030.17 287L1152.57 6.99998H1245.37L1367.77 287H1270.17L1179.77 51.8H1216.57L1126.17 287H1030.17ZM1102.97 238.2L1126.97 170.2H1255.77L1279.77 238.2H1102.97Z" fill="#F0F0F0"/>
</svg>
